<svg width="10" height="9" viewBox="0 0 10 9" fill="none" xmlns="http://www.w3.org/2000/svg">
<path d="M9.93671 1.25169L8.70028 0.0707438C8.65874 0.0310802 8.60234 0.00878906 8.54352 0.00878906C8.4847 0.00878906 8.42829 0.0310802 8.38675 0.0707438L3.16474 5.04757C3.1232 5.08724 3.06679 5.10953 3.00797 5.10953C2.94915 5.10953 2.89274 5.08724 2.8512 5.04757L1.61478 3.86663C1.57324 3.82697 1.51684 3.80468 1.45802 3.80468C1.39919 3.80468 1.34279 3.82697 1.30125 3.86663L0.0648293 5.04757C-0.0216098 5.12992 -0.0216098 5.26341 0.0648293 5.34576L2.8512 7.99993C2.89274 8.03959 2.94915 8.06188 3.00797 8.06188C3.06679 8.06188 3.1232 8.03959 3.16474 7.99993L9.93671 1.54692C10.0211 1.46492 10.0211 1.33369 9.93671 1.25169Z" fill="#5BA1FF"/>
</svg>
