<svg width="16" height="16" viewBox="0 0 16 16" fill="none" xmlns="http://www.w3.org/2000/svg">
<path d="M15.207 6.64062H8.15039V9.54102H12.1816C12.0078 10.4785 11.4805 11.2715 10.6855 11.8027C10.0137 12.252 9.15625 12.5176 8.14844 12.5176C6.19726 12.5176 4.54688 11.1992 3.95703 9.42773C3.80859 8.97852 3.72266 8.49805 3.72266 8.00391C3.72266 7.50977 3.80859 7.0293 3.95703 6.58008C4.54883 4.81055 6.19922 3.49219 8.15039 3.49219C9.25 3.49219 10.2363 3.87109 11.0137 4.61328L13.1621 2.46289C11.8633 1.25195 10.1699 0.509766 8.15039 0.509766C5.22266 0.509766 2.68945 2.18945 1.45703 4.63867C0.949219 5.65039 0.660156 6.79492 0.660156 8.00586C0.660156 9.2168 0.949219 10.3594 1.45703 11.3711C2.68945 13.8203 5.22266 15.5 8.15039 15.5C10.1738 15.5 11.8691 14.8281 13.1074 13.6836C14.5234 12.3789 15.3418 10.457 15.3418 8.17383C15.3418 7.64258 15.2949 7.13281 15.207 6.64062Z" fill="white"/>
</svg>
